<svg width="100" height="100" viewBox="0 0 100 100" fill="none" xmlns="http://www.w3.org/2000/svg">
<g clip-path="url(#clip0_2604_258)">
<path d="M50 0C22.4292 0 0 22.4292 0 50C0 77.5708 22.4292 100 50 100C77.5708 100 100 77.5708 100 50C100 22.4292 77.5708 0 50 0ZM88.9958 25.9417L79.8833 35.0583C78.3333 36.6083 76.1875 37.4958 73.9917 37.4958H61.675C62.2042 36.4583 62.5 35.2875 62.5 34.05V30.5875C62.5 28.5542 61.7083 26.6417 60.2708 25.2042L56.9375 21.8708C54.475 19.3958 50.6542 18.9167 47.6375 20.7208L41.1875 24.5875C40.75 24.8542 40.2375 24.9958 39.7208 24.9958H37.5V22.3583C37.5 20.1875 36.5625 18.1208 34.9792 16.7292L27.7042 9.9625C34.3083 6.27083 41.9125 4.1625 50 4.1625C66.4542 4.1625 80.9125 12.8833 88.9958 25.9417ZM65.775 48.7458C66.35 49.325 66.6667 50.0917 66.6667 50.9042V56.3333C66.6667 56.8875 66.5167 57.425 66.2333 57.9L55.975 75H53.2542L50.4583 63.8083C49.6583 60.5833 46.775 58.3333 43.4458 58.3333H37.5C35.2 58.3333 33.3333 56.4625 33.3333 54.1667V49.8125C33.3333 48.7167 33.8792 47.7 34.7917 47.0917L42.1083 42.2167C42.65 41.8583 43.275 41.6667 43.9208 41.6667H54.8917C56.0083 41.6667 57.0625 41.425 58.0208 40.9917L65.775 48.7458ZM50 95.8333C24.7292 95.8333 4.16667 75.2708 4.16667 50C4.16667 34.3583 12.0458 20.525 24.0375 12.25L32.1875 19.825C32.9167 20.4667 33.3333 21.3875 33.3333 22.3583V25.8C33.3333 27.6542 34.8417 29.1667 36.7 29.1667H39.725C41 29.1667 42.2458 28.8208 43.3333 28.1667L49.775 24.3042C51.1458 23.4833 52.8708 23.6958 53.9917 24.825L57.3292 28.1625C57.9792 28.8125 58.3375 29.675 58.3375 30.5958V34.0583C58.3375 35.9583 56.7917 37.5042 54.8917 37.5042H43.9208C42.45 37.5042 41.0292 37.9375 39.8 38.7542L32.4833 43.6292C30.4083 45.0125 29.1708 47.325 29.1708 49.8167V54.1708C29.1708 58.7667 32.9083 62.5042 37.5042 62.5042H43.45C44.8583 62.5042 46.0792 63.4583 46.4167 64.8208L49.3042 76.3792C49.7208 78.025 51.1875 79.1708 52.8833 79.1708H56.25C57.5375 79.1708 58.75 78.4833 59.4125 77.3792L69.8042 60.0542C70.4792 58.9333 70.8375 57.65 70.8375 56.3375V50.9083C70.8375 48.9833 70.0875 47.1708 68.725 45.8042L64.5875 41.6667H73.9958C77.2875 41.6667 80.5083 40.3333 82.8333 38.0083L91.1042 29.7333C94.1333 35.85 95.8375 42.7292 95.8375 50C95.8375 75.2708 75.275 95.8333 50.0042 95.8333H50Z" fill="#F1F1F1"/>
</g>
<defs>
<clipPath id="clip0_2604_258">
<rect width="100" height="100" fill="white"/>
</clipPath>
</defs>
</svg>
