<svg width="91" height="91" viewBox="0 0 91 91" fill="none" xmlns="http://www.w3.org/2000/svg">
<g clip-path="url(#clip0_2603_47)">
<path d="M87.0036 34.9668L79.625 27.7778V9.47917C79.625 4.25425 75.3745 0 70.1458 0H20.8542C15.6293 0 11.375 4.25425 11.375 9.47917V27.7853L3.99262 34.9668C1.456 37.4503 0 40.9083 0 44.4573V91H91V44.4535C91 40.9045 89.544 37.4465 87.0036 34.9668ZM84.357 37.6816C84.5276 37.8484 84.6869 38.019 84.8423 38.1973L79.625 43.4146V33.0747L84.357 37.6854V37.6816ZM20.8542 3.79167H70.1458C73.2815 3.79167 75.8333 6.34346 75.8333 9.47917V47.2025L54.8844 68.1552C49.8756 73.1678 41.132 73.1716 36.1156 68.1552L15.1667 47.2025V9.47917C15.1667 6.34346 17.7185 3.79167 20.8542 3.79167ZM11.375 33.0747V43.4108L6.15767 38.1935C6.31313 38.0153 6.47238 37.8446 6.63921 37.6816L11.375 33.0747ZM87.2083 87.2083H3.79167V44.4573C3.79167 43.4942 3.94333 42.5387 4.22771 41.6287L33.4311 70.8359C36.654 74.0588 40.9386 75.8333 45.4962 75.8333C50.0538 75.8333 54.3384 74.0588 57.5613 70.8359L86.7685 41.6249C87.0529 42.5349 87.2045 43.4866 87.2045 44.4535L87.2083 87.2083ZM64.4583 22.75H26.5417V18.9583H64.4583V22.75ZM56.875 37.9167H26.5417V34.125H56.875V37.9167Z" fill="#F1F1F1"/>
</g>
<defs>
<clipPath id="clip0_2603_47">
<rect width="91" height="91" fill="white"/>
</clipPath>
</defs>
</svg>
