<svg width="1275" height="50" viewBox="0 0 1275 50" fill="none" xmlns="http://www.w3.org/2000/svg">
<path d="M752.5 24.5557C752.5 24.5557 724.5 73.0546 683 24.5552C641.5 -23.9443 600 24.5557 600 24.5557C600 24.5557 572 73.0544 530.5 24.555" stroke="#535353" stroke-width="5"/>
<path d="M348.5 25.5547C348.5 25.5547 376.5 -22.9443 418 25.5552C459.5 74.0546 501 25.5547 501 25.5547C501 25.5547 529 -22.9441 570.5 25.5554" stroke="#535353" stroke-width="5"/>
<path d="M710.5 25.5547C710.5 25.5547 738.5 -22.9443 780 25.5552C821.5 74.0546 863 25.5547 863 25.5547C863 25.5547 891 -22.9441 932.5 25.5554" stroke="#535353" stroke-width="5"/>
<path d="M261.5 25.5547C261.5 25.5547 220 74.0546 178.5 25.5552C137 -22.9443 109 25.5547 109 25.5547" stroke="#535353" stroke-width="5"/>
<path d="M152.5 25.5547C152.5 25.5547 111 74.0546 69.5 25.5552C28 -22.9443 0 25.5547 0 25.5547" stroke="#535353" stroke-width="5"/>
<path d="M379.5 25.5547C379.5 25.5547 338 74.0546 296.5 25.5552C255 -22.9443 227 25.5547 227 25.5547" stroke="#535353" stroke-width="5"/>
<path d="M1154.5 24.5557C1154.5 24.5557 1113 -23.9443 1071.5 24.5552C1030 73.0546 1002 24.5557 1002 24.5557" stroke="#535353" stroke-width="5"/>
<path d="M1045.5 24.5557C1045.5 24.5557 1004 -23.9443 962.5 24.5552C921 73.0546 893 24.5557 893 24.5557" stroke="#535353" stroke-width="5"/>
<path d="M1272.5 24.5557C1272.5 24.5557 1231 -23.9443 1189.5 24.5552C1148 73.0546 1120 24.5557 1120 24.5557" stroke="#535353" stroke-width="5"/>
</svg>
