<svg width="105" height="106" viewBox="0 0 105 106" fill="none" xmlns="http://www.w3.org/2000/svg">
<path d="M1.94819 0.3209C1.18942 0.669525 0.512683 1.38728 0.22558 2.14605C0.102537 2.47417 0 3.74562 0 4.99657C0 7.04729 0.0410146 7.3549 0.512683 8.13419C1.02537 9.016 2.03022 9.67223 2.85052 9.67223C3.28117 9.67223 3.28117 9.73376 3.28117 15.0862C3.28117 20.2335 3.30168 20.5206 3.71182 21.0333C4.26552 21.7305 5.29089 21.7716 5.90611 21.0948C6.33676 20.6231 6.35727 20.4796 6.35727 15.1477V9.67223H8.10039H9.84351V55.8137V101.955H8.10039H6.35727V64.3242V26.6728L5.84458 26.1806C5.57799 25.8935 5.20886 25.6679 5.02429 25.6679C4.42958 25.6679 3.54777 26.2626 3.40421 26.7343C3.34269 27.0009 3.28117 44.4937 3.28117 65.6162V104.026L3.79385 104.519C4.28603 105.031 4.32704 105.031 8.16191 105.031C11.7712 105.031 12.0583 105.011 12.4684 104.621L12.9196 104.19V91.4964C12.9196 83.8882 13.0016 78.7819 13.1042 78.7819C13.2067 78.7819 14.4371 79.11 15.8316 79.5201C18.4566 80.2789 22.9477 81.0992 25.6546 81.3248C27.0286 81.4478 27.2747 81.4068 27.7464 81.0377C28.1565 80.7096 28.3001 80.402 28.3001 79.8893C28.3001 78.8024 27.7874 78.4333 26.0238 78.2897C22.1889 77.9411 15.9957 76.5876 13.6989 75.6238L12.9196 75.2956V68.7333C12.9196 63.3809 12.9606 62.171 13.1862 62.171C13.3503 62.171 13.986 62.3555 14.6422 62.5811C19.8921 64.3857 27.6644 65.2471 34.7189 64.8369C41.3017 64.4473 45.1776 63.8526 58.7535 61.1661C72.842 58.3771 76.0616 57.967 84.08 57.967C89.4939 57.967 90.4167 58.0285 92.7546 58.4386C95.5026 58.9308 99.8296 60.0587 101.163 60.6124L101.921 60.9405V66.1289C101.921 70.8866 101.88 71.3377 101.511 71.9529C101.019 72.7732 100.014 73.3064 99.1734 73.1834C98.8247 73.1424 97.1637 72.8143 95.4615 72.4656C90.8679 71.5223 88.3045 71.3377 82.1523 71.4608C74.7287 71.6248 71.8166 72.035 56.8053 74.988C46.5926 76.9977 42.5117 77.654 37.2823 78.1462C33.3654 78.5153 32.9347 78.6383 32.6066 79.4996C32.4016 80.0533 32.7502 80.9967 33.2834 81.2633C33.7961 81.5504 36.6671 81.3863 41.2197 80.8326C45.3417 80.3199 47.7 79.9098 57.0103 78.0641C72.0832 75.0906 74.9747 74.7009 82.3369 74.5369C88.325 74.4138 91.6677 74.6804 95.6666 75.6238C100.076 76.6696 101.388 76.4851 103.275 74.5779C105.141 72.7322 104.997 75.2751 104.997 42.607C104.997 23.6582 104.915 13.6096 104.792 13.1175C104.669 12.7073 104.28 11.928 103.89 11.3743C102.988 10.0414 101.347 9.24158 97.7994 8.33926C94.2926 7.45744 91.6267 7.0678 87.3201 6.7807C83.5263 6.51411 82.8906 6.61665 82.4599 7.53947C82.1318 8.27774 82.1728 8.56484 82.706 9.11854C83.1367 9.61071 83.3417 9.63122 87.0535 9.8568C91.4626 10.1234 94.1081 10.5335 97.8199 11.5384C99.8706 12.0716 100.506 12.3382 101.101 12.8714L101.819 13.5276L101.88 19.8234C101.942 25.8115 101.921 26.1191 101.573 25.9755C101.368 25.914 100.076 25.5244 98.7222 25.1553C93.0007 23.5762 86.7664 22.9815 80.2246 23.3916C73.5187 23.8018 69.7659 24.3555 56.9078 26.8984C43.1064 29.6259 39.4766 30.1385 32.8117 30.3231C25.4291 30.5077 19.5845 29.6874 14.109 27.6982L12.9196 27.2675V20.7462C12.9196 17.1779 12.9811 14.2044 13.0427 14.1223C13.1042 14.0608 13.6784 14.1838 14.3141 14.4094C16.2418 15.0862 19.3384 15.8039 22.2094 16.2756C24.5267 16.6652 25.7777 16.7268 30.8635 16.7268C39.3535 16.7473 42.163 16.3781 60.0659 12.8714C67.2025 11.4564 72.6164 10.554 76.0206 10.1849C76.9434 10.0824 77.3946 9.91832 77.7227 9.56969C78.3174 8.93397 78.2149 7.90861 77.4971 7.37541C77.005 7.00629 76.8204 6.98578 75.0363 7.19085C70.9758 7.68302 66.0335 8.52383 57.6255 10.1849C41.2197 13.4251 37.3028 13.9173 29.2844 13.7122C23.3783 13.5686 19.2769 12.8919 14.4577 11.2513C13.2272 10.8206 13.0221 10.6976 13.0221 10.2669C13.0221 9.89781 13.1657 9.75426 13.6374 9.67223C14.5602 9.46716 15.0934 9.11854 15.7291 8.29824C16.2828 7.58049 16.3033 7.47795 16.3033 4.97606C16.3033 2.08453 16.0982 1.4488 14.9293 0.608002C14.2731 0.13633 14.1706 0.13633 8.408 0.0953217C3.85537 0.054306 2.41986 0.0953217 1.94819 0.3209ZM13.3298 4.85301V6.59614H8.20293H3.0761V4.85301V3.10989H8.20293H13.3298V4.85301ZM91.6677 26.7958C94.4157 27.206 97.5943 27.9648 100.035 28.7645L101.921 29.4003V43.5093V57.6183L100.035 57.0236C97.8404 56.3264 94.2721 55.5676 91.4626 55.1575C88.8787 54.8088 78.8096 54.8088 75.7745 55.1575C71.1604 55.7112 66.5052 56.5109 57.523 58.2746C44.2548 60.879 41.1992 61.3507 34.8624 61.7813C27.7874 62.2325 20.5278 61.3917 14.9088 59.4435L13.0221 58.7873L12.9606 44.9448C12.9401 37.3366 12.9606 30.9998 13.0016 30.8563C13.0837 30.6512 13.3092 30.6717 13.986 30.9178C15.7496 31.533 19.646 32.4354 22.4555 32.8865C24.8959 33.2762 26.1673 33.3377 30.966 33.3377C39.0459 33.3377 42.6552 32.866 58.7945 29.6874C68.0433 27.8622 72.801 27.0624 76.6973 26.6933C77.9893 26.5908 79.4248 26.4472 79.876 26.4062C81.7011 26.2216 89.617 26.4882 91.6677 26.7958Z" fill="#F1F1F1"/>
<path d="M56.5181 33.891C56.026 34.2807 55.9849 34.4242 55.9849 36.0443C55.9849 37.0081 55.9029 37.7669 55.7799 37.7669C55.6773 37.7669 55.2262 37.1312 54.775 36.3519C54.3239 35.5726 53.7907 34.8959 53.6061 34.8138C52.5192 34.4037 51.4733 35.0599 51.4733 36.1468C51.4733 36.4954 51.8015 37.3773 52.2116 38.095C52.6217 38.8333 52.9088 39.469 52.8678 39.5305C52.8063 39.5715 52.1296 39.2434 51.3503 38.7923C50.571 38.3411 49.8328 37.972 49.6892 37.972C49.115 37.972 48.4177 38.4641 48.1717 39.0383C47.8025 39.9407 48.1717 40.4944 49.8738 41.4992L51.3708 42.381L49.5456 42.4836C47.8846 42.5861 47.7 42.6476 47.2488 43.1603C46.6541 43.8576 46.6336 44.3087 47.1873 45.0265C47.5769 45.5187 47.7205 45.5597 49.3201 45.5597C50.2634 45.5597 51.0837 45.6417 51.1452 45.7442C51.2272 45.8468 50.6736 46.2774 49.9353 46.6671C47.9461 47.795 47.5769 48.5332 48.4588 49.5791C49.1355 50.3584 49.8533 50.2969 51.4323 49.374C52.1501 48.9434 52.7858 48.6358 52.8473 48.6973C52.9088 48.7588 52.6012 49.415 52.1911 50.1533C51.2888 51.7529 51.2888 52.5732 52.1296 53.2089C52.9909 53.8446 53.6471 53.5165 54.7135 51.9169C55.1852 51.1787 55.6773 50.543 55.7799 50.5224C55.9029 50.4814 55.9849 51.1377 55.9849 52.1835C55.9849 53.8241 56.026 53.9677 56.5181 54.3573C57.1334 54.8495 57.3999 54.8905 58.0972 54.5624C58.815 54.2343 59.061 53.5575 59.061 51.9169C59.061 51.1172 59.1226 50.4814 59.2251 50.4814C59.3071 50.4814 59.7378 51.0966 60.1889 51.8554C61.1323 53.455 61.809 53.8446 62.7113 53.3319C63.019 53.1679 63.3471 52.7782 63.4701 52.4501C63.6342 51.958 63.5521 51.6709 62.8959 50.4609C62.4858 49.6816 62.1371 48.9639 62.1371 48.8408C62.1371 48.7383 62.8549 49.0049 63.7572 49.4766C65.2542 50.2764 65.3978 50.2969 65.9515 50.0508C66.6282 49.7227 66.9769 48.9229 66.7718 48.1641C66.6898 47.7745 66.2386 47.3848 65.2132 46.7901C64.4135 46.3184 63.7777 45.8673 63.7777 45.7647C63.7777 45.6417 64.557 45.5597 65.5208 45.5597C66.9974 45.5597 67.3255 45.4982 67.6741 45.1495C68.1868 44.6368 68.2073 43.6935 67.6946 43.0783C67.3665 42.6681 67.0794 42.5861 65.5003 42.4836L63.6752 42.3605L64.3724 41.9709C66.8538 40.5149 67.4075 39.5305 66.3411 38.4641C65.6644 37.7874 65.1312 37.8694 63.4701 38.8743C62.8139 39.2639 62.1987 39.551 62.1166 39.4895C62.0346 39.4485 62.3217 38.7718 62.7729 37.9925C63.6957 36.3724 63.7572 35.8802 63.06 35.2035C62.0756 34.1986 61.0913 34.6498 60.0454 36.5365C59.6763 37.2132 59.3071 37.7669 59.2456 37.7669C59.1636 37.7669 59.061 36.9671 59.0405 36.0033C58.9585 34.4447 58.897 34.1986 58.4663 33.85C57.8511 33.3373 57.1949 33.3578 56.5181 33.891ZM58.7124 40.925C59.0815 41.0686 59.6763 41.5197 60.0249 41.9299C61.2348 43.3039 61.1733 45.129 59.9018 46.4005C57.646 48.6563 54.1393 47.2618 54.1393 44.0831C54.1393 42.6681 54.7135 41.7453 55.9849 41.0891C57.0308 40.5764 57.7691 40.5149 58.7124 40.925Z" fill="#F1F1F1"/>
</svg>
