<svg width="91" height="91" viewBox="0 0 91 91" fill="none" xmlns="http://www.w3.org/2000/svg">
<g clip-path="url(#clip0_2603_52)">
<path d="M73.9375 0H17.0625C7.65538 0 0 7.65538 0 17.0625V20.8542C0 23.9444 1.50529 26.663 3.79925 28.3958C3.79925 28.411 3.79167 28.4223 3.79167 28.4375V73.9375C3.79167 83.3446 11.447 91 20.8542 91H70.1458C79.553 91 87.2083 83.3446 87.2083 73.9375V28.4375C87.2083 28.4375 87.2008 28.411 87.2008 28.3958C89.4947 26.663 91 23.9406 91 20.8542V17.0625C91 7.65538 83.3446 0 73.9375 0ZM83.4167 73.9375C83.4167 81.2554 77.4638 87.2083 70.1458 87.2083H20.8542C13.5363 87.2083 7.58333 81.2554 7.58333 73.9375V30.14C8.19758 30.2651 8.83079 30.3333 9.47917 30.3333H81.5208C82.1692 30.3333 82.8024 30.2651 83.4167 30.14V73.9375ZM87.2083 20.8542C87.2083 23.9899 84.6565 26.5417 81.5208 26.5417H9.47917C6.34346 26.5417 3.79167 23.9899 3.79167 20.8542V17.0625C3.79167 9.74458 9.74458 3.79167 17.0625 3.79167H73.9375C81.2554 3.79167 87.2083 9.74458 87.2083 17.0625V20.8542ZM53.5952 41.3292C49.9476 41.3292 46.9029 42.9027 45.064 45.4621C43.225 42.9027 40.1803 41.3292 36.5327 41.3292C30.7808 41.3292 26.1056 46.3114 26.1056 52.4388C26.1056 60.4581 35.7706 70.2899 40.8817 74.366C42.114 75.348 43.5852 75.8371 45.064 75.8371C46.5427 75.8371 48.0139 75.348 49.2462 74.366C54.3573 70.2899 64.0223 60.4619 64.0223 52.4388C64.0223 46.3114 59.3472 41.3292 53.5952 41.3292ZM46.8802 71.4009C45.8071 72.254 44.3132 72.254 43.244 71.4009C37.7005 66.9798 29.8935 58.1755 29.8935 52.4425C29.8935 48.4082 32.87 45.1246 36.5289 45.1246C40.4343 45.1246 43.1643 47.7902 43.1643 51.6046C43.1643 52.6511 44.0137 53.5004 45.0602 53.5004C46.1067 53.5004 46.956 52.6511 46.956 51.6046C46.956 47.7902 49.686 45.1246 53.5914 45.1246C57.2504 45.1246 60.2268 48.4082 60.2268 52.4425C60.2268 58.1793 52.4198 66.9836 46.8764 71.4009H46.8802Z" fill="#F1F1F1"/>
</g>
<defs>
<clipPath id="clip0_2603_52">
<rect width="91" height="91" fill="white"/>
</clipPath>
</defs>
</svg>
