<svg width="91" height="91" viewBox="0 0 91 91" fill="none" xmlns="http://www.w3.org/2000/svg">
<path d="M45.5 91C40.8856 91 35.9716 88.5582 32.6728 84.6338C16.4938 65.3873 7.58337 48.795 7.58337 37.9167C7.58337 17.0094 24.5928 0 45.5 0C66.4073 0 83.4167 17.0094 83.4167 37.9167C83.4167 48.795 74.5063 65.3873 58.3273 84.6338C55.0323 88.5582 50.1145 91 45.5 91ZM45.5 3.79167C26.6858 3.79167 11.375 19.1024 11.375 37.9167C11.375 47.756 20.1982 63.8972 35.5773 82.1957C38.1328 85.2405 42.0307 87.2045 45.5 87.2045C48.9694 87.2045 52.8635 85.2367 55.4228 82.1957C70.8056 63.8972 79.625 47.756 79.625 37.9167C79.625 19.0986 64.3181 3.79167 45.5 3.79167Z" fill="#F1F1F1"/>
<path d="M45.5 53.0833C37.1356 53.0833 30.3334 46.2811 30.3334 37.9167C30.3334 29.5522 37.1356 22.75 45.5 22.75C53.8645 22.75 60.6667 29.5522 60.6667 37.9167C60.6667 46.2811 53.8645 53.0833 45.5 53.0833ZM45.5 26.5417C39.2286 26.5417 34.125 31.6452 34.125 37.9167C34.125 44.1881 39.2286 49.2917 45.5 49.2917C51.7715 49.2917 56.875 44.1881 56.875 37.9167C56.875 31.6452 51.7715 26.5417 45.5 26.5417Z" fill="#F1F1F1"/>
</svg>
