<svg width="91" height="91" viewBox="0 0 91 91" fill="none" xmlns="http://www.w3.org/2000/svg">
<g clip-path="url(#clip0_2603_55)">
<path d="M91 23.2657C91 15.2425 86.7533 7.97767 79.9245 4.30733C74.6048 1.45221 69.0083 0 63.2867 0H27.7171C21.9955 0 16.399 1.44842 11.0793 4.30733C4.24667 7.97767 0 15.2425 0 23.2657V41.7993H15.1667V91H75.8333V41.7083H91V23.2657ZM58.6343 3.79167C57.713 10.2148 52.1733 15.1667 45.5 15.1667C38.8267 15.1667 33.287 10.2148 32.3657 3.79167H58.6343ZM87.2083 37.9167H75.8333V26.5417H72.0417V87.2083H18.9583V26.5417H15.1667V38.0077H3.79167V23.2657C3.79167 16.6378 7.26862 10.6546 12.8727 7.64779C17.635 5.09221 22.6287 3.79167 27.7171 3.79167H28.5437C29.4916 12.3115 36.7337 18.9583 45.5 18.9583C54.2663 18.9583 61.5122 12.3115 62.4563 3.79167H63.2829C68.3713 3.79167 73.365 5.08842 78.1273 7.64779C83.7276 10.6546 87.2083 16.6416 87.2083 23.2657V37.9167Z" fill="#F1F1F1"/>
</g>
<defs>
<clipPath id="clip0_2603_55">
<rect width="91" height="91" fill="white"/>
</clipPath>
</defs>
</svg>
